<svg xmlns="http://www.w3.org/2000/svg" xmlns:xlink="http://www.w3.org/1999/xlink" width="120.206" height="152.5" viewBox="0 0 120.206 152.5">
  <defs>
    <linearGradient id="linear-gradient" x1="0.512" y1="1" x2="0.512" y2="0.015" gradientUnits="objectBoundingBox">
      <stop offset="0" stop-color="#59bff3"/>
      <stop offset="1" stop-color="#41a5da"/>
    </linearGradient>
    <filter id="Rectangle_314" x="0" y="7.474" width="81.501" height="106.803" filterUnits="userSpaceOnUse">
      <feOffset dy="3" input="SourceAlpha"/>
      <feGaussianBlur stdDeviation="3" result="blur"/>
      <feFlood flood-opacity="0.161"/>
      <feComposite operator="in" in2="blur"/>
      <feComposite in="SourceGraphic"/>
    </filter>
    <linearGradient id="linear-gradient-2" x1="1" y1="0.5" x2="0" y2="0.5" gradientUnits="objectBoundingBox">
      <stop offset="0" stop-color="#fff"/>
      <stop offset="1" stop-color="#ebebeb"/>
    </linearGradient>
    <linearGradient id="linear-gradient-3" x1="1" y1="0.5" x2="0" y2="0.5" gradientUnits="objectBoundingBox">
      <stop offset="0" stop-color="#fb4748"/>
      <stop offset="1" stop-color="#ff806d"/>
    </linearGradient>
    <filter id="path-5" x="14.316" y="46.61" width="105.89" height="105.89" filterUnits="userSpaceOnUse">
      <feOffset dy="10" input="SourceAlpha"/>
      <feGaussianBlur stdDeviation="9.5" result="blur-2"/>
      <feFlood flood-opacity="0.31"/>
      <feComposite operator="in" in2="blur-2"/>
      <feComposite in="SourceGraphic"/>
    </filter>
    <linearGradient id="linear-gradient-4" x1="0.5" y1="1.289" x2="0.5" gradientUnits="objectBoundingBox">
      <stop offset="0" stop-color="#ff8c7b"/>
      <stop offset="1" stop-color="#fff29b"/>
    </linearGradient>
  </defs>
  <g id="Component_26_1" data-name="Component 26 – 1" transform="translate(9)">
    <g transform="matrix(1, 0, 0, 1, -9, 0)" filter="url(#Rectangle_314)">
      <rect id="Rectangle_314-2" data-name="Rectangle 314" width="63.501" height="88.803" rx="6" transform="translate(9 13.47)" fill="url(#linear-gradient)"/>
    </g>
    <path id="Path_1147" data-name="Path 1147" d="M40.388,77.73H73.063A2.466,2.466,0,0,1,75.529,80.2v0a2.466,2.466,0,0,1-2.466,2.466H40.388A2.466,2.466,0,0,1,37.922,80.2v0a2.466,2.466,0,0,1,2.466-2.466Zm0,15.429H73.063a2.466,2.466,0,0,1,2.466,2.466v0A2.466,2.466,0,0,1,73.063,98.1H40.388a2.466,2.466,0,0,1-2.466-2.467v0A2.466,2.466,0,0,1,40.388,93.159Zm0,15.429H57.651a2.466,2.466,0,0,1,2.466,2.466v.005a2.466,2.466,0,0,1-2.466,2.466H40.388a2.466,2.466,0,0,1-2.466-2.466v0a2.466,2.466,0,0,1,2.467-2.466Z" transform="translate(-24.975 -45.002)" fill="url(#linear-gradient-2)"/>
    <g id="Group_1379" data-name="Group 1379" transform="translate(33.816 65.11)">
      <g transform="matrix(1, 0, 0, 1, -42.82, -65.11)" filter="url(#path-5)">
        <ellipse id="path-5-2" data-name="path-5" cx="24.445" cy="24.445" rx="24.445" ry="24.445" transform="translate(42.82 65.11)" fill="url(#linear-gradient-3)"/>
      </g>
    </g>
    <path id="Path_1502" data-name="Path 1502" d="M480.1,65.414a2.835,2.835,0,1,1,2.835-2.835,2.835,2.835,0,0,1-2.835,2.835m11.293-3.064h-4.069v-.022a7.224,7.224,0,1,0-14.447-.061v.083h-4.069A5.811,5.811,0,0,0,463,68.162V70.6a3.12,3.12,0,0,0,3.12,3.12h27.97a3.12,3.12,0,0,0,3.12-3.12V68.162a5.812,5.812,0,0,0-5.812-5.811" transform="translate(-447.398 -55.044)" fill-rule="evenodd" fill="url(#linear-gradient-4)"/>
    <g id="neet" transform="translate(41.106 1178.844)">
      <path id="Path_1531" data-name="Path 1531" d="M17.006-1101.83a1.949,1.949,0,0,0-.976.484,1.72,1.72,0,0,0-.591,1.24,1.448,1.448,0,0,0,.048.463.759.759,0,0,1,.029.149,2.088,2.088,0,0,0,.33.713,1.5,1.5,0,0,0,.258.208l.17.112,0,.535c0,.3.011.82.021,1.168a5.486,5.486,0,0,1,0,.63,4.957,4.957,0,0,1-.78-.3,2.309,2.309,0,0,1-.984-.777c-.173-.261-.184-.319-.186-1.163s-.013-.918-.192-1.261a3.4,3.4,0,0,0-1.147-1.266c-.4-.3-.471-.33-.705-.309a3.4,3.4,0,0,0-1.391.508c-.476.271-1.567.806-2.059,1.016a16.267,16.267,0,0,1-2.833.913c-.391.09-.974.192-1.463.25a13.376,13.376,0,0,1-2.168.1c-1.368-.008-1.679.021-1.934.178-.178.106-.133.255.16.521a3.643,3.643,0,0,0,1.006.588,5.9,5.9,0,0,0,1.578.553.71.71,0,0,1,.122.026,1.52,1.52,0,0,1-.08.16c-.173.33-.059.553.386.758a5.589,5.589,0,0,0,1.49.333c.1.008.218.024.258.029.072.013.074.016.032.1a.329.329,0,0,0,.043.341,1.968,1.968,0,0,0,.971.455A3.79,3.79,0,0,0,7.6-1094.4c.138-.029.266-.056.285-.056s.035.037.035.112c0,.487.649.811,1.418.716a2.6,2.6,0,0,0,.559-.122c.045-.019.045-.013-.005.069a.206.206,0,0,0,0,.274c.154.2.639.314,1.506.362.261.013.495.027.521.027s.008.032-.08.1a1.965,1.965,0,0,0-.883,1.878,1.787,1.787,0,0,0,.4.758,4.571,4.571,0,0,0,2.094,1.046l.29.072c.021.005-.011.042-.08.093a2.822,2.822,0,0,0-.639.7,1.985,1.985,0,0,0-.282.859.9.9,0,0,0,.072.481,2.464,2.464,0,0,0,.442.843,4.329,4.329,0,0,0,1.695,1.179l.152.064-.138.08a2.179,2.179,0,0,0-.628.62,1.979,1.979,0,0,0-.154,1.442,1.858,1.858,0,0,0,.62.886c.16.12.452.309,1.072.686.2.122.386.24.418.266l.059.045-.168.165a.654.654,0,0,1-.181.149c-.008-.008-.029.008-.051.032-.035.043-.032.045.011.011.024-.019.045-.024.045-.008a.18.18,0,0,1-.1.1c-.008,0-.013.011-.008.021a.247.247,0,0,1-.061.1,2.281,2.281,0,0,0-.33.7,3.149,3.149,0,0,0-.008.777c.011-.008.019.048.021.122a.579.579,0,0,0,.074.279,2.136,2.136,0,0,0,.519.572c.037.019.067.048.064.064a.091.091,0,0,0,.04.067c.04.032.043.029.008-.013-.051-.064,0-.056.088.016l.074.061-.13.16a2.109,2.109,0,0,0-.529,1.075,1.5,1.5,0,0,0,.434,1.048l.173.2-.1.234a.876.876,0,0,0-.1.484.661.661,0,0,0,.1.439.8.8,0,0,0,.423.426l.184.093,0,.367c0,.2,0,.4,0,.447-.011.136.043.162.359.184a.939.939,0,0,0,.346-.011c.061-.027.064-.04.064-.285s0-.253.048-.234a.459.459,0,0,0,.532-.255.437.437,0,0,0,.048-.314.89.89,0,0,0-.178-.5c-.051-.056-.053-.064-.013-.173.021-.064.074-.2.12-.3a.464.464,0,0,0,.053-.41,1,1,0,0,0-.394-.466.468.468,0,0,1-.136-.117c0-.016.08-.056.178-.09a1.95,1.95,0,0,0,.588-.351c.271-.279.511-.74.434-.833-.027-.029-.021-.045.019-.075.059-.042.077-.285.035-.474-.013-.067-.032-.152-.04-.192a1.626,1.626,0,0,0-.282-.487l-.077-.08.08-.12a2.287,2.287,0,0,0,.375-.958,2.5,2.5,0,0,0-.045-.825,2.341,2.341,0,0,0-.372-.718c-.141-.17-.154-.149.2-.338a4.522,4.522,0,0,0,1.344-.894,2.183,2.183,0,0,0,.242-.391,3.161,3.161,0,0,1,.157-.293,1.59,1.59,0,0,0,.146-.516c0-.072-.011-.1-.043-.1s-.037-.008-.011-.04.024-.072-.013-.208a2.28,2.28,0,0,0-.317-.665c-.04-.043-.061-.088-.053-.1s.008-.021-.008-.013a1.312,1.312,0,0,1-.367-.359c.008-.008-.008-.029-.032-.051-.043-.035-.045-.032-.011.008s.024.048.008.048-.072-.051-.072-.085a.081.081,0,0,0-.024-.04c-.013-.013-.016-.005,0,.016s.008.032-.016.024-.037-.027-.037-.04a.089.089,0,0,0-.024-.053c-.013-.013-.016-.008-.005.011.027.048-.011.043-.1-.016l-.077-.051.2-.072a3.474,3.474,0,0,0,2.269-2.112,1.889,1.889,0,0,0,0-.753,2.764,2.764,0,0,0-.577-1.07c-.1-.1-.176-.189-.173-.189s.112-.032.245-.067a4.965,4.965,0,0,0,1.487-.633,3.872,3.872,0,0,0,.426-.351,1.205,1.205,0,0,0,.45-1.024,2.15,2.15,0,0,0-.676-1.532l-.2-.2.229-.019c.128-.008.412-.029.631-.043a1.951,1.951,0,0,0,.857-.192c.223-.1.274-.2.215-.38-.037-.112-.037-.122,0-.106a3.449,3.449,0,0,0,.623.178,1.167,1.167,0,0,0,.726-.128c.46-.2.689-.442.628-.676-.024-.1-.024-.106.032-.093a4,4,0,0,0,1.378.093,1.7,1.7,0,0,0,1.088-.487c.053-.09.069-.3.024-.325a.068.068,0,0,1-.027-.051c0-.027.088-.04.327-.053a3.924,3.924,0,0,0,1.418-.285,1.072,1.072,0,0,0,.444-.4.494.494,0,0,0-.021-.458.3.3,0,0,1-.061-.1c.005-.005.141-.04.3-.082a12.557,12.557,0,0,0,1.4-.466,3.928,3.928,0,0,0,1.189-.793c.141-.2.08-.338-.192-.428a3,3,0,0,0-1.189-.08,14.735,14.735,0,0,1-2.528-.112c-.138-.013-.359-.037-.492-.053a13.862,13.862,0,0,1-5.135-1.652c-.306-.146-.577-.277-.6-.29s-.141-.074-.266-.138l-.513-.263a2.138,2.138,0,0,0-.976-.3.567.567,0,0,0-.4.1,6.721,6.721,0,0,0-1.165,1.019,2.755,2.755,0,0,0-.471,1.008,1.848,1.848,0,0,0-.024.883,1.678,1.678,0,0,1,.016.519,1.914,1.914,0,0,1-1.322,1.325,3.063,3.063,0,0,1-.774.21c-.008-.011,0-.452.013-.984s.029-1.054.029-1.16c0-.189,0-.2.088-.266a2.377,2.377,0,0,0,.529-.6,1.606,1.606,0,0,0,.218-.865,1.728,1.728,0,0,0-.3-1.062,2.188,2.188,0,0,0-.593-.559A2.116,2.116,0,0,0,17.006-1101.83Zm-6.521,1.517c-.019.106-.064.184-.064.109a.523.523,0,0,1,.069-.208C10.5-1100.411,10.5-1100.366,10.485-1100.313Zm5.792,7.327.1.024.016.537c.011.3.027.979.037,1.516l.016.979h-.077c-.146,0-.769-.083-1.434-.186-.364-.058-.827-.122-1.024-.146a1.921,1.921,0,0,1-1.038-.309,1.183,1.183,0,0,1-.559-1c0-.354.189-.561.62-.684a4.912,4.912,0,0,1,1.123-.072,3.686,3.686,0,0,0,1.407-.152c.261-.09.388-.2.388-.333a.286.286,0,0,0-.04-.144.186.186,0,0,1-.04-.074A1.585,1.585,0,0,1,16.277-1092.986Zm2.684.037a.38.38,0,0,1-.043.1.247.247,0,0,0,.085.317c.229.2.553.247,1.727.253a3.363,3.363,0,0,1,1.043.059c.455.151.647.386.647.793a1.184,1.184,0,0,1-.745,1.008,3.543,3.543,0,0,1-1.45.309c-.16.016-.466.051-.678.08-.6.08-1.439.165-1.455.149s.037-2.025.069-2.647l.016-.333.09-.021A2.637,2.637,0,0,1,18.962-1092.949Zm-.45,4.164c1.085.189,1.753.466,1.926.8a1.153,1.153,0,0,1-.059.849,2.788,2.788,0,0,1-.7.737,3.585,3.585,0,0,1-1.362.607c-.4.106-.364.152-.351-.431.008-.274.024-.825.037-1.221s.027-.875.027-1.059v-.333h.09A3.7,3.7,0,0,1,18.512-1088.785Zm-2.022.934c.011.49.027,1.16.037,1.493l.019.6-.168-.04a3.884,3.884,0,0,1-1.591-.742,4.631,4.631,0,0,1-.537-.705.426.426,0,0,1-.085-.3c.011-.524.615-.939,1.62-1.123a4.528,4.528,0,0,1,.662-.08A6.6,6.6,0,0,1,16.49-1087.851Zm1.6,3.586a2.593,2.593,0,0,1,.628.325.783.783,0,0,0,.165.1.607.607,0,0,1,.194.221c0,.019.005.042.005.058a1.034,1.034,0,0,0,.04.112c.027.067.053.088.1.088.069,0,.069,0,.016.051a.445.445,0,0,0-.088.133c-.021.045-.048.074-.064.064s-.019,0-.008.016c.029.048-.213.394-.436.617a3,3,0,0,1-.644.487l-.128.072v-.474c0-.261.016-.617.032-.793s.029-.5.027-.726a3.08,3.08,0,0,1,0-.4C17.938-1084.315,18.007-1084.294,18.087-1084.265Zm-1.49.513c0,.282.011.769.021,1.08a4.276,4.276,0,0,1,0,.559,3.28,3.28,0,0,1-.617-.559,1.137,1.137,0,0,1-.362-.74.42.42,0,0,1,.082-.3,1.61,1.61,0,0,1,.631-.458,1.691,1.691,0,0,1,.226-.09A3.264,3.264,0,0,1,16.6-1083.751Zm1.195,4.637-.027.106.013-.106c.008-.058.016-.226.019-.372l.005-.266.008.266A1.758,1.758,0,0,1,17.791-1079.114Zm-1.1-.128c-.008.026-.013.005-.013-.045s.005-.072.013-.048A.273.273,0,0,1,16.692-1079.241Z" fill="url(#linear-gradient-2)"/>
      <path id="Path_1532" data-name="Path 1532" d="M705.2-407.458c0,.043.005.059.013.032a.2.2,0,0,0,0-.08C705.205-407.522,705.2-407.5,705.2-407.458Z" transform="translate(-686.1 -675.859)" fill="url(#linear-gradient-2)"/>
      <path id="Path_1533" data-name="Path 1533" d="M736.155-456.894a.655.655,0,0,0,.117.106c.008,0-.035-.048-.091-.106a.658.658,0,0,0-.117-.106C736.057-457,736.1-456.952,736.155-456.894Z" transform="translate(-716.142 -627.688)" fill="url(#linear-gradient-2)"/>
      <path id="Path_1534" data-name="Path 1534" d="M589.633-315.862l-.133.141.141-.133c.128-.122.152-.146.13-.146C589.769-316,589.7-315.936,589.633-315.862Z" transform="translate(-573.478 -764.936)" fill="url(#linear-gradient-2)"/>
      <path id="Path_1535" data-name="Path 1535" d="M701.2-182.508c0,.037.005.051.013.032a.139.139,0,0,0,0-.067C701.205-182.559,701.2-182.546,701.2-182.508Z" transform="translate(-682.206 -894.836)" fill="url(#linear-gradient-2)"/>
      <path id="Path_1536" data-name="Path 1536" d="M694.413-151.9c-.027.069-.027.072.011.024a.205.205,0,0,0,.04-.074C694.463-151.994,694.444-151.976,694.413-151.9Z" transform="translate(-675.581 -924.597)" fill="url(#linear-gradient-2)"/>
      <path id="Path_1537" data-name="Path 1537" d="M689.028-142.955c-.035.043-.032.045.011.011s.056-.056.035-.056A.166.166,0,0,0,689.028-142.955Z" transform="translate(-670.335 -933.334)" fill="url(#linear-gradient-2)"/>
    </g>
  </g>
</svg>
