<svg xmlns="http://www.w3.org/2000/svg" width="131.057" height="121.831" viewBox="0 0 131.057 121.831">
    <defs>
        <linearGradient id="linear-gradient" x1=".512" x2=".512" y1="1" y2=".015" gradientUnits="objectBoundingBox">
            <stop offset="0" stop-color="#59bff3"/>
            <stop offset="1" stop-color="#41a5da"/>
        </linearGradient>
        <linearGradient id="linear-gradient-2" x1="1" x2="0" y1=".5" y2=".5" gradientUnits="objectBoundingBox">
            <stop offset="0" stop-color="#fff"/>
            <stop offset="1" stop-color="#ebebeb"/>
        </linearGradient>
        <linearGradient id="linear-gradient-4" x1="1" x2="0" y1=".5" y2=".5" gradientUnits="objectBoundingBox">
            <stop offset="0" stop-color="#fb4748"/>
            <stop offset="1" stop-color="#ff806d"/>
        </linearGradient>
        <filter id="Fill_42" width="131.057" height="119.317" x="0" y="2.514" filterUnits="userSpaceOnUse">
            <feOffset dy="3"/>
            <feGaussianBlur result="blur" stdDeviation="3"/>
            <feFlood flood-opacity=".161"/>
            <feComposite in2="blur" operator="in"/>
            <feComposite in="SourceGraphic"/>
        </filter>
        <filter id="Fill_43" width="63.513" height="33.268" x="33.636" y="0" filterUnits="userSpaceOnUse">
            <feOffset dy="3"/>
            <feGaussianBlur result="blur-2" stdDeviation="3"/>
            <feFlood flood-opacity=".161"/>
            <feComposite in2="blur-2" operator="in"/>
            <feComposite in="SourceGraphic"/>
        </filter>
        <style>
            .cls-1{fill:url(#linear-gradient)}.cls-3{fill:url(#linear-gradient-4)}
        </style>
    </defs>
    <g id="Component_8_1" transform="translate(9 6)">
        <g id="Group_1383" transform="translate(-905.625 -2965.169)">
            <g id="Pattern" transform="translate(905.625 2965.169)">
                <g id="Group_4" transform="translate(0 0)">
                    <g id="Group_21">
                        <g id="Group_18">
                            <g id="Group_8" transform="translate(0 103.831) rotate(-90)">
                                <g filter="url(#Fill_42)" transform="matrix(0, 1, -1, 0, 109.83, -9)">
                                    <path id="Fill_42-2" d="M9.861 113.057h81.594c5.447 0 9.861-3.168 9.861-7.075V7.073C101.317 3.166 96.9 0 91.455 0H9.861C4.415 0 0 3.166 0 7.073v98.909c0 3.907 4.415 7.075 9.861 7.075" class="cls-1" transform="translate(9 109.83) rotate(-90)"/>
                                </g>
                                <path id="Fill_43-2" fill="url(#linear-gradient-2)" d="M0 90.28c0 3.227 3.732 5.843 8.336 5.843h69.2c4.6 0 8.336-2.616 8.336-5.843V5.843C85.871 2.616 82.138 0 77.534 0H8.336C3.732 0 0 2.616 0 5.843z" transform="translate(7.026 8.783)"/>
                                <g filter="url(#Fill_43)" transform="matrix(0, 1, -1, 0, 109.83, -9)">
                                    <path id="Fill_43-3" d="M0 42.747c0 1.528.664 2.766 1.482 2.766h12.3c.819 0 1.482-1.239 1.482-2.766V2.766C15.268 1.239 14.6 0 13.786 0H1.482C.664 0 0 1.239 0 2.766z" class="cls-1" transform="translate(42.64 21.27) rotate(-90)"/>
                                </g>
                            </g>
                        </g>
                    </g>
                    <g id="Group_705" transform="translate(20.505 38.931)">
                        <rect id="Rectangle_307" width="42.232" height="10.558" class="cls-3" rx="2"/>
                        <rect id="Rectangle_308" width="42.232" height="10.558" class="cls-3" rx="2" transform="translate(0 24.636)"/>
                    </g>
                    <path id="Path_421" d="M60.255 46.847a1.9 1.9 0 0 1-1.3-.511l-3.813-3.547a1.888 1.888 0 0 1-.091-2.681 1.91 1.91 0 0 1 2.692-.09l2.484 2.31 8.273-8.05a1.91 1.91 0 0 1 2.692.031 1.889 1.889 0 0 1-.031 2.681l-9.579 9.316a1.9 1.9 0 0 1-1.33.541" class="cls-3" transform="translate(18.258 5.455)"/>
                </g>
                <path id="Path_422" fill="url(#linear-gradient-4)" fill-rule="evenodd" d="M16.214 7.119h-5.932V1.187A1.187 1.187 0 0 0 9.1 0h-.8a1.187 1.187 0 0 0-1.182 1.186v5.933H1.186A1.186 1.186 0 0 0 0 8.3v.8a1.186 1.186 0 0 0 1.186 1.186h5.932v5.932A1.188 1.188 0 0 0 8.3 17.4h.8a1.187 1.187 0 0 0 1.186-1.187v-5.931h5.932A1.187 1.187 0 0 0 17.4 9.1v-.8a1.187 1.187 0 0 0-1.186-1.181z" transform="translate(82.346 57.397) rotate(45)"/>
            </g>
        </g>
    </g>
</svg>
