<svg xmlns="http://www.w3.org/2000/svg" width="118.218" height="153.5" viewBox="0 0 118.218 153.5">
    <defs>
        <linearGradient id="linear-gradient" x1=".512" x2=".512" y1="1" y2=".015" gradientUnits="objectBoundingBox">
            <stop offset="0" stop-color="#59bff3"/>
            <stop offset="1" stop-color="#41a5da"/>
        </linearGradient>
        <linearGradient id="linear-gradient-3" x1="1" x2="0" y1=".5" y2=".5" gradientUnits="objectBoundingBox">
            <stop offset="0" stop-color="#fff"/>
            <stop offset="1" stop-color="#ebebeb"/>
        </linearGradient>
        <linearGradient id="linear-gradient-4" x1="1" x2="0" y1=".5" y2=".5" gradientUnits="objectBoundingBox">
            <stop offset="0" stop-color="#fb4748"/>
            <stop offset="1" stop-color="#ff806d"/>
        </linearGradient>
        <filter id="Rectangle_314" width="85.556" height="119.749" x="0" y="0" filterUnits="userSpaceOnUse">
            <feOffset dy="3"/>
            <feGaussianBlur result="blur" stdDeviation="3"/>
            <feFlood flood-opacity=".161"/>
            <feComposite in2="blur" operator="in"/>
            <feComposite in="SourceGraphic"/>
        </filter>
        <filter id="path-5" width="105.89" height="105.89" x="12.328" y="47.61" filterUnits="userSpaceOnUse">
            <feOffset dy="10"/>
            <feGaussianBlur result="blur-2" stdDeviation="9.5"/>
            <feFlood flood-opacity=".31"/>
            <feComposite in2="blur-2" operator="in"/>
            <feComposite in="SourceGraphic"/>
        </filter>
        <style>
            .cls-1{fill:url(#linear-gradient)}.cls-2{fill:url(#linear-gradient-3)}
        </style>
    </defs>
    <g id="Scorecard" transform="translate(2 1)">
        <g id="Scorecard-2">
            <g id="Group_1238" transform="translate(0)">
                <g id="Group_1234" transform="translate(0)">
                    <rect id="Rectangle_350" width="70.556" height="106.749" class="cls-1" rx="6"/>
                    <g filter="url(#Rectangle_314)" transform="matrix(1, 0, 0, 1, -2, -1)">
                        <rect id="Rectangle_314-2" width="67.556" height="101.749" class="cls-1" rx="6" transform="translate(9 6)"/>
                    </g>
                    <path id="Path_1147" d="M40.508 94.873h34.268c1.429 0 2.587 1.5 2.586 3.339v.006c0 1.845-1.158 3.34-2.587 3.339H40.508c-1.429 0-2.587-1.5-2.586-3.34v-.006c0-1.843 1.158-3.338 2.586-3.338zm0 20.891h18.1c1.428 0 2.586 1.5 2.586 3.339v.007c0 1.844-1.158 3.339-2.586 3.339h-18.1c-1.429 0-2.587-1.5-2.586-3.339v-.01c0-1.845 1.158-3.34 2.587-3.339z" class="cls-2" transform="translate(-17.36 -66.537)"/>
                    <g filter="url(#path-5)" transform="matrix(1, 0, 0, 1, -2, -1)">
                        <circle id="path-5-2" cx="24.445" cy="24.445" r="24.445" fill="url(#linear-gradient-4)" transform="translate(40.83 66.11)"/>
                    </g>
                </g>
            </g>
            <path id="path-12" d="M.847 15.184l6.36 5a2.954 2.954 0 0 0 4.148-.5l.061-.08 12.8-17.485a1.3 1.3 0 0 0-.282-1.813l-.046-.032a1.629 1.629 0 0 0-2.072.219L10.243 12.388a1.477 1.477 0 0 1-2.066.05L5.346 9.8a2.216 2.216 0 0 0-3.131.1q-.057.061-.11.127l-1.62 2.028a2.216 2.216 0 0 0 .346 3.114z" class="cls-2" transform="translate(50.829 79.11)"/>
        </g>
    </g>
</svg>
